<svg xmlns="http://www.w3.org/2000/svg" width="410.638" height="819.934"><defs><filter id="a" x="178.471" y="28.613" width="53.093" height="9.514" filterUnits="userSpaceOnUse"><feOffset dy="1"/><feGaussianBlur stdDeviation=".5" result="b"/><feFlood flood-color="#fff" flood-opacity=".216"/><feComposite operator="in" in2="b"/><feComposite in="SourceGraphic"/></filter><filter id="e" x="12.675" y="9.469" width="385.923" height="800.728" filterUnits="userSpaceOnUse"><feOffset dy="1"/><feGaussianBlur result="f"/><feFlood flood-opacity=".502"/><feComposite operator="in" in2="f"/><feComposite in="SourceGraphic"/></filter><filter id="g" x="12.675" y="8.469" width="385.923" height="800.728" filterUnits="userSpaceOnUse"><feOffset dy="-1"/><feGaussianBlur result="h"/><feFlood flood-opacity=".502"/><feComposite operator="in" in2="h"/><feComposite in="SourceGraphic"/></filter><filter id="k" x="178.471" y="28.613" width="53.093" height="9.514" filterUnits="userSpaceOnUse"><feOffset dy="1"/><feGaussianBlur stdDeviation=".5" result="l"/><feFlood flood-color="#fff" flood-opacity=".216"/><feComposite operator="in" in2="l"/><feComposite in="SourceGraphic"/></filter><linearGradient id="c" x1=".5" x2=".5" y2="1" gradientUnits="objectBoundingBox"><stop offset="0" stop-color="#3e3e41"/><stop offset=".01" stop-color="#222"/><stop offset="1" stop-color="#252525"/></linearGradient><linearGradient id="d" x1=".5" x2=".5" y2="1" gradientUnits="objectBoundingBox"><stop offset="0" stop-color="#6d6d6d"/><stop offset=".016"/><stop offset=".985"/><stop offset="1" stop-color="#5c5c5c"/></linearGradient><linearGradient id="i" x1=".5" y1="1" x2=".5" gradientUnits="objectBoundingBox"><stop offset="0" stop-color="#1f1f1f"/><stop offset="1" stop-color="#0f0f0f"/></linearGradient><clipPath id="j"><ellipse class="a" cx="3.168" cy="3.17" rx="3.168" ry="3.17"/></clipPath><clipPath id="m"/><style>.a{fill:#070d1d;opacity:.388}.f{fill:none}.k{fill:#0d569a}.r{fill:#fff}.u{font-family:Helvetica}.u,.v{fill:#626262}.u{font-size:10px;letter-spacing:.012em}.y{stroke:none}</style></defs><g stroke-miterlimit="10" fill="#595a5f"><path class="y" d="M336.124 819.319H74.517c-6.011 0-11.694-.363-16.89-1.077-5.213-.717-10.099-1.811-14.52-3.252-4.432-1.444-8.534-3.281-12.192-5.46a49.893 49.893 0 01-9.892-7.695c-2.896-2.92-5.457-6.265-7.61-9.94-2.144-3.658-3.95-7.755-5.368-12.178-1.408-4.394-2.477-9.245-3.177-14.418-.694-5.134-1.046-10.744-1.046-16.674V71.309c0-5.93.352-11.54 1.046-16.673.7-5.174 1.769-10.025 3.177-14.419 1.418-4.423 3.224-8.52 5.367-12.178 2.154-3.675 4.715-7.02 7.611-9.94a49.827 49.827 0 019.892-7.695c3.658-2.179 7.76-4.016 12.192-5.46 4.421-1.44 9.307-2.535 14.52-3.252C62.824.978 68.507.615 74.518.615h261.607c6.011 0 11.694.363 16.89 1.077 5.214.717 10.099 1.811 14.52 3.252 4.432 1.444 8.534 3.281 12.192 5.46 3.661 2.18 6.99 4.77 9.892 7.695 2.897 2.92 5.457 6.265 7.611 9.94 2.144 3.658 3.95 7.755 5.367 12.178 1.409 4.394 2.477 9.245 3.177 14.419.694 5.133 1.046 10.743 1.046 16.673v677.316c0 11.442-1.496 21.678-4.446 30.423-1.478 4.38-3.348 8.467-5.56 12.147a53.099 53.099 0 01-7.782 10.037 52.95 52.95 0 01-9.987 7.871c-3.68 2.25-7.772 4.153-12.162 5.658-4.399 1.509-9.214 2.657-14.312 3.414-5.113.759-10.646 1.144-16.446 1.144z"/><path d="M74.517 1.231c-48.045 0-70.079 22.78-70.079 70.078v677.316c0 47.299 22.034 70.078 70.079 70.078h261.607c46.48 0 70.08-24.385 70.08-70.078V71.309c0-47.299-22.034-70.078-70.08-70.078H74.517m0-1.231h261.607c6.04 0 11.75.364 16.974 1.082 5.25.723 10.171 1.825 14.627 3.277 4.475 1.458 8.62 3.314 12.316 5.516 3.706 2.207 7.075 4.828 10.014 7.79 2.933 2.958 5.525 6.343 7.705 10.063 2.167 3.696 3.99 7.835 5.422 12.301 1.42 4.429 2.497 9.315 3.2 14.524.699 5.16 1.053 10.798 1.053 16.756v677.316c0 11.509-1.507 21.81-4.479 30.62-1.491 4.422-3.38 8.55-5.616 12.267a53.717 53.717 0 01-7.872 10.154 53.559 53.559 0 01-10.103 7.962c-3.718 2.273-7.85 4.196-12.283 5.716-4.435 1.52-9.287 2.678-14.421 3.44-5.143.763-10.707 1.15-16.537 1.15H74.517c-6.04 0-11.75-.364-16.973-1.082-5.25-.723-10.172-1.825-14.627-3.277-4.476-1.458-8.62-3.314-12.317-5.516-3.706-2.207-7.075-4.828-10.014-7.79-2.933-2.958-5.525-6.343-7.705-10.063-2.166-3.696-3.99-7.835-5.422-12.301-1.42-4.429-2.496-9.315-3.2-14.524-.698-5.16-1.052-10.798-1.052-16.756V71.309c0-5.958.354-11.595 1.051-16.756.705-5.209 1.782-10.095 3.201-14.524 1.431-4.466 3.256-8.605 5.422-12.301 2.18-3.72 4.772-7.105 7.705-10.062A50.485 50.485 0 0130.6 9.875c3.697-2.202 7.841-4.058 12.317-5.516 4.455-1.452 9.377-2.554 14.627-3.277C62.767.364 68.478 0 74.517 0z" fill="#161617"/></g><path d="M65.958 0C20.477 0 0 20.626 0 65.9v676.8c0 45.278 20.477 65.9 65.958 65.9h261.611c43.9 0 65.958-22.221 65.958-65.9V65.9c0-45.278-20.477-65.9-65.958-65.9z" transform="translate(8.872 5.666)" fill="url(#c)"/><g filter="url(#e)" transform="translate(.005 -.002)"><path d="M61.938 0h262.047c43.211 0 61.938 18.7 61.938 61.737v676.255c0 41.448-20.313 61.737-61.938 61.737H61.938C18.728 799.728 0 781.026 0 737.992V61.737C0 18.7 18.728 0 61.938 0z" transform="translate(12.67 9.47)" fill="url(#d)"/></g><g filter="url(#g)" transform="translate(.005 -.002)"><path class="f" d="M74.608 9.47h262.047c43.211 0 61.938 18.7 61.938 61.737v676.255c0 41.448-20.313 61.737-61.938 61.737H74.608c-43.21-.001-61.938-18.703-61.938-61.737V71.207C12.67 28.17 31.398 9.47 74.608 9.47z"/></g><path d="M74.602 15.172c-39.69 0-55.59 15.866-55.59 55.449v676.791c0 39.583 15.9 55.449 55.59 55.449h262.069c38.1 0 55.59-17.452 55.59-55.449V70.621c0-39.583-15.899-55.449-55.59-55.449z"/><path class="f" d="M74.602 15.172c-39.69 0-55.59 15.866-55.59 55.449v676.791c0 39.583 15.9 55.449 55.59 55.449h262.069c38.1 0 55.59-17.452 55.59-55.449V70.621c0-39.583-15.899-55.449-55.59-55.449z"/><path d="M369.458 15.108c19.63 8.386 28.505 26.483 28.505 56.136v676.115c0 27.886-9.178 46.192-27.838 55.184 1.98-5.605 20.866-14.841 20.866-52.019V68.018c0-39.218-22.115-48.303-21.533-52.91zM41.813 803.393c-19.63-8.394-28.505-26.51-28.505-56.192V70.41c0-27.914 9.178-46.238 27.838-55.239-1.98 5.611-20.866 14.856-20.866 52.071V750.43c0 39.257 22.115 48.352 21.533 52.963z" fill="rgba(255,255,255,.78)"/><path d="M2.011 243.304a3.358 3.358 0 00-1.857 1.275 1.967 1.967 0 00-.154.673v55.646a5.714 5.714 0 00.155.943c.339.915.927 1.136 1.856 1.665H3.16c0-1.667.019-58.572 0-60.2zm0-75.41a3.358 3.358 0 00-1.857 1.275 1.967 1.967 0 00-.154.673v55.646a5.714 5.714 0 00.155.943c.339.915.927 1.136 1.856 1.665H3.16c0-1.667.019-58.572 0-60.2zm0-57.667A2.122 2.122 0 000 112.445v27.249a2.122 2.122 0 002.011 2.218H3.16c0-1.667.019-30.056 0-31.685zm406.616 77.311a3.358 3.358 0 011.856 1.275 1.967 1.967 0 01.154.674v91.132a5.714 5.714 0 01-.155.943c-.339.915-.927 1.136-1.856 1.665h-1.148c0-1.667-.019-94.059 0-95.689z" fill="#7d7e85"/><g transform="translate(242.707 26.578)"><circle cx="5.703" cy="5.703" r="5.703" fill="url(#i)"/><g transform="translate(2.533 2.535)"><ellipse class="a" cx="3.168" cy="3.17" rx="3.168" ry="3.17"/><g clip-path="url(#j)"><path class="k" d="M2.724 8.132C.977 8.132-.444 5.907-.444 3.17S.977-1.793 2.724-1.793a2.139 2.139 0 01.951.227C2.348-.913 1.456.989 1.456 3.17s.892 4.082 2.219 4.737a2.139 2.139 0 01-.951.225z"/><path class="k" d="M3.67 8.132a2.141 2.141 0 01-.951-.225c1.327-.653 2.218-2.554 2.218-4.735S4.046-.913 2.719-1.566a2.141 2.141 0 01.951-.227c1.749 0 3.168 2.226 3.168 4.963S5.419 8.132 3.67 8.132z"/></g></g></g><g opacity=".801"><g transform="translate(.001 .003)" filter="url(#k)"><rect width="50.093" height="6.514" rx="3.257" transform="translate(179.97 29.11)" fill="#1d1c1c"/></g><g clip-path="url(#m)" transform="translate(179.971 29.113)"><path d="M-30.279-4.991l17.928 17.928M-26.959-4.991l17.928 17.928M-23.639-4.991l17.928 17.928M-20.319-4.991l17.928 17.928M-16.999-4.991L.929 12.937M-13.679-4.991L4.249 12.937M-10.359-4.991L7.569 12.937M-7.039-4.991l17.928 17.928M-3.719-4.991l17.928 17.928M-.399-4.991l17.928 17.928M2.921-4.991l17.928 17.928M6.241-4.991l17.928 17.928M9.561-4.991l17.928 17.928M12.881-4.991l17.928 17.928M16.2-4.991l17.928 17.928M19.52-4.991l17.928 17.928M22.84-4.991l17.928 17.928M26.16-4.991l17.928 17.928M29.48-4.991l17.928 17.928M32.8-4.991l17.928 17.928M36.12-4.991l17.928 17.928M39.44-4.991l17.928 17.928M42.76-4.991l17.928 17.928M59.36-4.991L41.432 12.937M56.04-4.991L38.112 12.937M52.72-4.991L34.792 12.937M49.4-4.991L31.472 12.937M46.08-4.991L28.152 12.937M42.76-4.991L24.832 12.937M39.44-4.991L21.512 12.937M36.12-4.991L18.192 12.937M32.8-4.991L14.872 12.937M29.481-4.991L11.553 12.937M26.161-4.991L8.233 12.937M22.841-4.991L4.913 12.937M19.521-4.991L1.593 12.937M16.201-4.991L-1.727 12.937M12.881-4.991L-5.047 12.937M9.561-4.991L-8.367 12.937M6.241-4.991l-17.928 17.928M2.921-4.991l-17.928 17.928M-.399-4.991l-17.928 17.928M-3.719-4.991l-17.928 17.928M-7.039-4.991l-17.928 17.928m14.608-17.928l-17.928 17.928m14.608-17.928l-17.928 17.928" stroke="#fff" stroke-width=".6" fill="none" stroke-miterlimit="10" opacity=".056"/></g></g><path class="f" d="M12.043 23.168h375v44h-375z"/><g transform="translate(348.043 40.168)"><g transform="translate(.333 .333)" opacity=".35" stroke="#fff" fill="none" stroke-miterlimit="10"><rect class="y" width="22" height="11.333" rx="2.667"/><rect class="f" x=".5" y=".5" width="21" height="10.333" rx="2.167"/></g><path d="M23.333 4v4a2.17 2.17 0 001.328-2 2.17 2.17 0 00-1.328-2" opacity=".4" fill="#fff"/><rect class="r" width="18" height="7.333" rx="1.333" transform="translate(2.333 2.333)"/></g><path class="r" d="M335.488 51.406l-2.006-2.022a.309.309 0 01-.094-.231.314.314 0 01.1-.227 3.437 3.437 0 014.437 0 .315.315 0 01.009.458l-2.002 2.022a.313.313 0 01-.445 0zm3.53-3.542a4.928 4.928 0 00-6.612 0 .311.311 0 01-.435-.005l-1.16-1.171a.322.322 0 010-.46 7.193 7.193 0 019.791 0 .322.322 0 010 .46l-1.15 1.171a.311.311 0 01-.435.005zm2.669-2.7a8.68 8.68 0 00-11.955 0 .308.308 0 01-.435 0l-1.16-1.165a.323.323 0 010-.457 10.947 10.947 0 0115.141 0 .323.323 0 010 .457l-1.161 1.17a.308.308 0 01-.435 0zm-20.644 6.338a1 1 0 01-1-1v-8.667a1 1 0 011-1h1a1 1 0 011 1v8.667a1 1 0 01-1 1zm-4.667 0a1 1 0 01-1-1v-6.333a1 1 0 011-1h1a1 1 0 011 1v6.333a1 1 0 01-1 1zm-4.667 0a1 1 0 01-1-1v-4a1 1 0 011-1h1a1 1 0 011 1v4a1 1 0 01-1 1zm-4.666 0a1 1 0 01-1-1v-2a1 1 0 011-1h1a1 1 0 011 1v2a1 1 0 01-1 1z"/><path class="f" d="M33.543 36.168h54v21h-54z"/><text transform="translate(33.543 38.168)" font-family="Helvetica" font-size="15" letter-spacing="-.02em" fill="#fff"><tspan x="12.853" y="12">9:41</tspan></text><rect class="r" width="134" height="5" rx="2.5" transform="translate(139.043 792.168)"/><text class="u" transform="translate(316.563 758.313)"><tspan x="11.333" y="8">More</tspan></text><path class="v" d="M347.049 751.099h-16.117a1.008 1.008 0 010-2.015h16.117a1.008 1.008 0 010 2.015zm0-6.044h-16.117a1.008 1.008 0 010-2.015h16.117a1.008 1.008 0 010 2.015zm0-6.044h-16.117a1.008 1.008 0 110-2.012h16.117a1.008 1.008 0 010 2.015z"/><text class="u" transform="translate(226.854 757.835)"><tspan x="8.372" y="8">Profile</tspan></text><g fill="none" stroke-miterlimit="10"><path class="y" d="M249.08 753.779a16.426 16.426 0 01-5.439-.816c-1.617-.592-2.472-1.438-2.472-2.446a7.718 7.718 0 012.4-5.556 8 8 0 015.515-2.294 8 8 0 015.515 2.294 7.718 7.718 0 012.4 5.556c0 1.008-.855 1.854-2.472 2.447a16.426 16.426 0 01-5.447.815zm0-11.74a4.76 4.76 0 01-3.325-1.42 4.762 4.762 0 01-1.42-3.327 4.762 4.762 0 011.42-3.327 4.76 4.76 0 013.326-1.42 4.762 4.762 0 013.327 1.421 4.762 4.762 0 011.421 3.327 4.762 4.762 0 01-1.421 3.327 4.762 4.762 0 01-3.327 1.42z"/><path d="M249.08 752.48c1.924 0 3.696-.262 4.992-.737.983-.36 1.62-.842 1.62-1.226 0-1.725-.712-3.367-2.004-4.624-1.257-1.224-2.936-1.926-4.607-1.926-1.672 0-3.352.702-4.61 1.926-1.29 1.257-2.002 2.899-2.002 4.624 0 .384.636.865 1.62 1.226 1.295.475 3.067.736 4.991.736m0-11.74c.87 0 1.747-.378 2.408-1.04.66-.66 1.04-1.538 1.04-2.407s-.38-1.746-1.04-2.407-1.538-1.04-2.407-1.04c-.87 0-1.746.379-2.407 1.04-.66.66-1.04 1.538-1.04 2.407 0 .87.38 1.747 1.04 2.408.66.66 1.538 1.04 2.407 1.04m0 13.04c-2.073 0-4.005-.29-5.44-.816-1.617-.593-2.472-1.44-2.472-2.447 0-2.08.851-4.052 2.396-5.556 1.498-1.458 3.509-2.294 5.516-2.294 2.006 0 4.016.836 5.514 2.294 1.545 1.504 2.396 3.477 2.396 5.556 0 1.008-.855 1.854-2.472 2.447-1.435.526-3.366.815-5.439.815zm0-11.74c-1.212 0-2.424-.518-3.326-1.421-.903-.903-1.42-2.115-1.42-3.327 0-1.211.517-2.424 1.42-3.326.902-.903 2.114-1.421 3.326-1.421 1.21 0 2.423.518 3.326 1.42.903.903 1.42 2.116 1.42 3.327 0 1.212-.517 2.424-1.42 3.327-.903.903-2.115 1.42-3.326 1.42z" fill="#626262"/></g><text transform="translate(138.099 757.836)" font-size="10" letter-spacing=".012em" font-family="Helvetica" fill="#fff"><tspan x="6.762" y="8">Search</tspan></text><path class="r" d="M171.455 754.809a1 1 0 00.708-1.709l-6.212-6.209a9.3 9.3 0 002.087-5.9 9.406 9.406 0 10-3.5 7.314l6.212 6.212a.993.993 0 00.705.292zm-12.817-21.772a7.953 7.953 0 11-7.954 7.954 7.962 7.962 0 017.954-7.954z"/><text class="u" transform="translate(48.389 757.836)"><tspan x="9.387" y="8">Home</tspan></text><path class="v" d="M78.643 752.587h-4.342a1.483 1.483 0 01-1.446-1.513v-6.056h-2.892v6.055a1.482 1.482 0 01-1.446 1.513h-4.338a1.482 1.482 0 01-1.446-1.513v-10.686l-1.717 1.438a.7.7 0 01-.451.165.706.706 0 01-.565-.284.785.785 0 01.113-1.064l4.066-3.407v-4.328a1.483 1.483 0 011.446-1.514 1.482 1.482 0 011.446 1.514v1.906l3.887-3.254a.7.7 0 01.9 0l10.849 9.083a.785.785 0 01.113 1.064.707.707 0 01-.565.284.7.7 0 01-.451-.165l-1.719-1.438v10.686a1.483 1.483 0 01-1.442 1.514zm-10.126-9.083h5.784v7.57h4.342v-11.899l-7.23-6.055-7.234 6.056v11.9h4.338v-7.571z"/><path class="r" d="M48.588 806.659a46 46 0 01-43.451-45.93V67.206A65.761 65.761 0 019.29 44.112a43.598 43.598 0 00-.186 4.023V763.8a43 43 0 0039.483 42.858zm314.438 0a43 43 0 0039.483-42.857V48.136c0-.663-.015-1.335-.046-2a67.807 67.807 0 014.013 23.07v691.523a45.964 45.964 0 01-43.45 45.93zM48.173 5.313a65.77 65.77 0 0122.964-4.107h267.34a67.818 67.818 0 0122.954 3.972 44.403 44.403 0 00-1.921-.042H52.104a43.227 43.227 0 00-3.931.177z"/></svg>
