<svg xmlns="http://www.w3.org/2000/svg" width="77" height="77"><defs><style>.a,.d{fill:none}.a{stroke:#1a1a1a;stroke-width:3px}.c{stroke:none}</style></defs><g class="a" transform="translate(6 50)"><circle class="c" cx="7" cy="7" r="7"/><circle class="d" cx="7" cy="7" r="5.5"/></g><g class="a"><path class="c" d="M7 63h12a7 7 0 017 7v7H0v-7a7 7 0 017-7z"/><path class="d" d="M7 64.5h12a5.5 5.5 0 015.5 5.5v4a1.5 1.5 0 01-1.5 1.5H3A1.5 1.5 0 011.5 74v-4A5.5 5.5 0 017 64.5z"/></g><g class="a" transform="translate(57 50)"><circle class="c" cx="7" cy="7" r="7"/><circle class="d" cx="7" cy="7" r="5.5"/></g><g class="a"><path class="c" d="M58 63h12a7 7 0 017 7v7H51v-7a7 7 0 017-7z"/><path class="d" d="M58 64.5h12a5.5 5.5 0 015.5 5.5v4a1.5 1.5 0 01-1.5 1.5H54a1.5 1.5 0 01-1.5-1.5v-4a5.5 5.5 0 015.5-5.5z"/></g><g class="a" transform="translate(32)"><circle class="c" cx="7" cy="7" r="7"/><circle class="d" cx="7" cy="7" r="5.5"/></g><g class="a"><path class="c" d="M33 13h12a7 7 0 017 7v7H26v-7a7 7 0 017-7z"/><path class="d" d="M33 14.5h12a5.5 5.5 0 015.5 5.5v4a1.5 1.5 0 01-1.5 1.5H29a1.5 1.5 0 01-1.5-1.5v-4a5.5 5.5 0 015.5-5.5z"/></g><path d="M64.425 24.412L64.5 42.5m-8-19h8M31.464 70.43H45.5M12.425 24.412L12.5 42.5m-.036-19.07l9.036.07m25 17l-11 10m-4-3l4 3" stroke-linecap="round" stroke="#1a1a1a" stroke-width="3" fill="none"/></svg>
