<svg xmlns="http://www.w3.org/2000/svg" width="75.102" height="74"><defs><style>.a,.e{fill:none}.a{stroke:#1a1a1a;stroke-width:3px}.d{stroke:none}</style></defs><g class="a"><path class="d" d="M0 0h59v74H0z"/><path class="e" d="M1.5 1.5h56v71h-56z"/></g><path class="a" d="M10.5 18.5h36m-36 10h29.041M10.5 38.5h22.722m-22.722 9h16.937"/><g fill="#fff" stroke="#1a1a1a" stroke-width="3"><path class="d" d="M68.964 22.456l6.138 6.582L48.773 53.59l-6.138-6.582z"/><path class="e" d="M68.89 24.576l4.092 4.388L48.847 51.47l-4.092-4.388z"/></g><g fill="#1a1a1a"><path class="d" d="M42.106 49.774l3.773 3.773-4.821 1.048 1.048-4.821z"/><path d="M42.365 53.288l1.512-.329-1.183-1.183-.329 1.512m-2.615 2.615l1.768-8.132 6.364 6.364-8.132 1.768z"/></g></svg>
