<svg xmlns="http://www.w3.org/2000/svg" width="1227" height="854.5"><defs><clipPath id="a"><path transform="translate(-97 1675)" fill="#fff" d="M0 0h1227v786H0z"/></clipPath><style>.b{fill:#f72d54}</style></defs><path class="b" d="M197.587 525.29l64.362-64.362 64.363 64.362-64.363 64.362z"/><path fill="#faa293" opacity=".353" d="M717.587 395.29l65.07-65.07 65.069 65.07-65.07 65.07z"/><g transform="translate(97 -1675)" clip-path="url(#a)"><g opacity=".498"><path class="b" d="M878.417 1810.62v-129.984a.865.865 0 01.542-.806.878.878 0 01.948.19l194.941 194.973a.887.887 0 010 1.233l-64.98 64.99a.87.87 0 01-1.233 0l-129.961-129.98a.881.881 0 01-.257-.616zm1.746-127.884v127.514l129.088 129.107 63.748-63.757z"/><path class="b" d="M1073.37 2005.59v-129.98a.886.886 0 01.256-.617l194.682-194.714v-129.62a.871.871 0 01.542-.806.875.875 0 01.949.19l64.983 64.99a.875.875 0 010 1.233l-63.491 63.5h127.858a.87.87 0 01.872.873.869.869 0 01-.872.873h-129.6l-194.434 194.458v127.514l193.454-193.481a.866.866 0 011.23 0 .875.875 0 010 1.233l-194.94 194.97a.879.879 0 01-.948.19.865.865 0 01-.541-.806zm196.691-452.834v125.775l62.871-62.884z"/><path class="b" d="M878.417 2070.58a.8.8 0 01.067-.332.88.88 0 01.806-.541h129.6l64.724-64.734a.87.87 0 011.233 0l64.981 64.99a.871.871 0 010 1.233l-259.922 259.961a.872.872 0 01-1.489-.616V2200.56a.889.889 0 01.256-.617l64.374-64.373-64.365-64.373a.854.854 0 01-.265-.617zm1.746 130.34v127.514l257.826-257.854-63.749-63.757zm126.992-129.471h-125.76l62.876 62.884zm66.215 194.105a.877.877 0 01.256-.616l129.96-129.984a.888.888 0 01.62-.257h129.956a.848.848 0 01.8.542.88.88 0 01-.184.948l-129.966 129.98a.871.871 0 01-1.23-1.233l128.474-128.491h-127.5l-129.697 129.724a.871.871 0 01-1.233 0 .862.862 0 01-.256-.613z"/><path class="b" d="M1203.334 1875.609a.842.842 0 01.252-.617.867.867 0 011.23 0l64.363 64.374 129.345-129.364a.879.879 0 011.24 0 .875.875 0 010 1.233L1270.419 1940.6l194.319 194.354a.874.874 0 01.261.616v129.981a.871.871 0 01-.542.806.882.882 0 01-.949-.19l-194.939-194.971a.874.874 0 01-.262-.616v-129.62l-64.721-64.734a.857.857 0 01-.252-.617zm66.727 67.1v127.511l193.2 193.234v-127.523z"/><path class="b" d="M1463.255 2265.554a.9.9 0 01.252-.616l129.965-129.984a.866.866 0 011.23 0 .875.875 0 010 1.233l-129.965 129.98a.868.868 0 01-1.23 0 .885.885 0 01-.252-.613z"/><path class="b" d="M1333.29 2135.57a.867.867 0 01.261-.616l129.346-129.364-64.372-64.374a.908.908 0 01-.252-.617V1810.98l-64.721-64.735a.858.858 0 010-1.233.868.868 0 011.23 0l63.491 63.5v-127.876a.871.871 0 01.542-.806.883.883 0 01.949.19L1529.72 1810a.858.858 0 010 1.233l-64.983 64.99a.868.868 0 01-.61.256.891.891 0 01-.62-.256l-63.491-63.5v127.513l64.111 64.117 64.363-64.374a.864.864 0 011.22-.009l131.68 128.273a.869.869 0 01.01 1.233l-66.688 66.7a.866.866 0 01-1.23 0l-129.355-129.353-129.345 129.364a.868.868 0 01-1.23 0 .853.853 0 01-.262-.617zm66.727-452.834v127.514l64.111 64.117 63.743-63.757zm129.1 259.087l-63.757 63.767 128.723 128.746 65.458-65.455z"/><path class="b" d="M1073.37 2135.569a.871.871 0 01.873-.873h129.606l194.676-194.713a.874.874 0 111.24 1.233l-194.948 194.97a.869.869 0 01-.61.256h-129.964a.87.87 0 01-.873-.873zm58.839 194.983l7.022 7.023 7.021-7.023-7.021-7.022zm-.006-259.965l7.022 7.022 7.021-7.022-7.021-7.023z"/><path class="b" d="M1392.131 1940.611l7.014 7.023 7.023-7.023-7.023-7.023zm-.01 129.977l7.023 7.022 7.023-7.022-7.023-7.023zM878.417 2330.54a.861.861 0 01.257-.616l64.981-64.99a.868.868 0 011.232 0l64.981 64.99a.872.872 0 01-.616 1.489H879.29a.865.865 0 01-.806-.541.99.99 0 01-.067-.332zm65.854-63.756l-62.875 62.883h125.759zm324.036 63.756a.851.851 0 01.262-.616l64.983-64.99a.868.868 0 011.23 0l64.983 64.99a.876.876 0 01-.62 1.489h-129.966a.867.867 0 01-.8-.541.788.788 0 01-.072-.332zm65.855-63.756l-62.871 62.883h125.752z"/><path class="b" d="M1268.307 2330.54v-259.96a.874.874 0 011.492-.617l64.983 64.991a.864.864 0 01.252.616v129.981a.872.872 0 11-1.744 0V2135.93l-63.233-63.244v257.865a.878.878 0 01-.881.873.891.891 0 01-.869-.884zm129.966.004V2200.56a.911.911 0 01.252-.617l323.431-323.46h-127.493l-64.731 64.734a.871.871 0 01-1.23-1.233l64.983-64.99a.868.868 0 01.61-.256h129.956a.867.867 0 01.8.541.88.88 0 01-.184.949l-324.652 324.7v129.62a.87.87 0 01-.872.873.884.884 0 01-.87-.877zM163.63 2005.59v-129.98a.885.885 0 01.256-.617l194.686-194.714v-129.62a.865.865 0 01.541-.806.878.878 0 01.948.19l64.981 64.99a.871.871 0 010 1.233l-63.492 63.5h127.866a.871.871 0 01.873.873.87.87 0 01-.873.873h-129.6L165.385 1875.97zm196.679-452.835v125.776l62.875-62.884z"/><path class="b" d="M-31.321 2070.579a.8.8 0 01.067-.331.879.879 0 01.806-.541h129.6l64.724-64.734a.884.884 0 01.616-.256.885.885 0 01.617.256l64.981 64.99a.87.87 0 010 1.233l-259.923 259.96a.878.878 0 01-.948.19.879.879 0 01-.541-.806v-129.98a.885.885 0 01.257-.617l64.364-64.373-64.364-64.373a.884.884 0 01-.256-.618zm1.746 130.341v127.514l257.826-257.863-63.75-63.758zm126.992-129.471H-28.342l62.875 62.884z"/><path class="b" d="M33.66 2135.569a.877.877 0 01.256-.616.869.869 0 011.233 0l194.325 194.354 63.748-63.756-194.325-194.355a.871.871 0 010-1.233.871.871 0 011.233 0l194.941 194.97a.888.888 0 010 1.233l-64.981 64.99a.869.869 0 01-1.233 0l-194.942-194.97a.863.863 0 01-.255-.617z"/><path class="b" d="M163.631 2265.554a.876.876 0 01.256-.616l129.961-129.984a.883.883 0 01.617-.257h129.961a.866.866 0 01.806.541.879.879 0 01-.19.949l-129.344 129.367 194.511 194.539a.872.872 0 01-1.233 1.233l-195.128-195.159a.888.888 0 010-1.233l128.472-128.491H294.825L165.12 2266.167a.871.871 0 01-1.233 0 .862.862 0 01-.256-.613z"/><path class="b" d="M293.592 1875.609a.861.861 0 01.256-.617.87.87 0 011.233 0l64.364 64.374 129.345-129.363a.871.871 0 011.233 0 .871.871 0 010 1.233L360.678 1940.6l194.325 194.353a.881.881 0 01.257.616v129.98a.866.866 0 01-.541.807.878.878 0 01-.948-.19l-194.942-194.97a.88.88 0 01-.256-.616v-129.62l-64.725-64.734a.877.877 0 01-.256-.617zm66.716 67.1v127.511l193.207 193.233V2135.93z"/><path class="b" d="M553.514 2265.554a.878.878 0 01.257-.616l129.96-129.984a.872.872 0 011.233 1.233l-129.96 129.98a.873.873 0 01-1.49-.617z"/><path class="b" d="M423.554 2135.57a.877.877 0 01.256-.616l129.344-129.364-64.363-64.374a.886.886 0 01-.256-.617V1810.98l-64.725-64.734a.871.871 0 010-1.233.871.871 0 011.233 0l63.492 63.5v-127.877a.865.865 0 01.541-.806.878.878 0 01.948.19L619.986 1810a.871.871 0 010 1.233l-64.981 64.993a.887.887 0 01-.617.256.883.883 0 01-.616-.256l-63.492-63.5v127.51l64.108 64.117 64.365-64.374a.867.867 0 011.224-.009l131.677 128.276a.854.854 0 01.265.616.885.885 0 01-.257.617l-66.688 66.7a.871.871 0 01-1.233 0l-129.344-129.366-129.344 129.364a.871.871 0 01-1.233 0 .8.8 0 01-.266-.607zm66.725-452.834v127.514l64.108 64.117 63.748-63.757zm129.1 259.087l-63.758 63.767 128.728 128.746 65.455-65.464z"/><path class="b" d="M293.592 2135.569a.876.876 0 01.256-.616l194.942-194.97a.872.872 0 011.233 1.233l-194.942 194.97a.872.872 0 01-1.489-.617zm-71.129-64.97l7.022 7.023 7.025-7.023-7.025-7.022z"/><path class="b" d="M482.395 1940.618l7.027 7.026 7.021-7.023-7.021-7.026zm-.004 129.976l7.022 7.022 7.021-7.022-7.021-7.023zm129.966 260.337l7.021 7.023 7.022-7.023-7.022-7.023zm324.897 324.945l7.021 7.023 7.022-7.023-7.022-7.022zm-193.366-586.867l7.021 7.023 7.022-7.023-7.022-7.023zm-1.573 131.568l7.021 7.023 7.022-7.023-7.025-7.023zM358.573 2330.54a.864.864 0 01.256-.617l64.981-64.99a.869.869 0 011.233 0l64.981 64.99a.873.873 0 01-.617 1.49H359.446a.866.866 0 01-.806-.541.8.8 0 01-.067-.332zm65.854-63.756l-62.876 62.883h125.76z"/><path class="b" d="M293.525 2395.596a.881.881 0 01.256-.617l64.791-64.8v-259.6a.865.865 0 01.541-.807.88.88 0 01.948.19l64.981 64.989a.884.884 0 01.256.616v129.984a.873.873 0 11-1.746 0V2135.93l-63.235-63.244v257.865a.884.884 0 01-.256.616l-65.037 65.055a.869.869 0 01-1.233 0 .886.886 0 01-.266-.626zm195.009-65.052V2200.56a.884.884 0 01.256-.617l323.424-323.461H684.723l-64.73 64.734a.872.872 0 01-1.233-1.233l64.981-64.99a.887.887 0 01.617-.256h129.951a.866.866 0 01.807.541.88.88 0 01-.19.949l-324.647 324.7v129.62a.87.87 0 01-.873.872.883.883 0 01-.872-.875z"/><path class="b" d="M228.612 2330.54a.88.88 0 01.256-.617.871.871 0 011.233 0l194.324 194.723 129.346-129.363a.872.872 0 111.232 1.233l-129.344 129.363 194.325 194.355a.88.88 0 01.256.616v129.98a.865.865 0 01-.541.807.88.88 0 01-.948-.19l-194.939-194.97a.884.884 0 01-.256-.616v-129.62l-194.689-195.085a.86.86 0 01-.255-.616zm196.686 197.446v127.513l193.207 193.235V2721.22z"/><path class="b" d="M488.534 2720.847a.864.864 0 01.256-.617l129.344-129.359-64.363-64.374a.885.885 0 01-.257-.617v-129.62l-64.724-64.733a.872.872 0 111.233-1.233l63.491 63.5V2265.92a.865.865 0 01.542-.806.878.878 0 01.948.19l129.961 129.98a.907.907 0 010 1.233l-64.981 64.99a.868.868 0 01-1.232 0l-63.492-63.5v127.513l64.108 64.118 64.364-64.373a.866.866 0 011.224-.01l131.667 128.272a.851.851 0 01.266.616v.01a.881.881 0 01-.257.616l-66.688 66.7a.869.869 0 01-1.233 0l-129.344-129.365-129.344 129.363a.869.869 0 01-1.233 0 .86.86 0 01-.256-.62zm66.725-452.825v127.518l64.108 64.118 63.748-63.757zm129.1 259.079l-63.757 63.766 128.727 128.75 65.454-65.464z"/><path class="b" d="M547.359 2655.882l7.022 7.023 7.021-7.023-7.021-7.022zm-123.805 259.952V2655.87a.864.864 0 01.541-.806.877.877 0 01.948.19l64.981 64.99a.889.889 0 01.256.617v129.98a.873.873 0 11-1.745 0v-129.62l-63.235-63.259v257.868a.873.873 0 01-1.746 0zm454.863-324.963v-129.98a.866.866 0 01.542-.806.879.879 0 01.948.19l194.941 194.97a.887.887 0 010 1.233l-64.981 64.991a.871.871 0 01-1.233 0l-129.96-129.981a.868.868 0 01-.257-.617zm1.746-127.874v127.514l129.088 129.107 63.748-63.756zm323.171 62.884a.959.959 0 01.058-.332.885.885 0 01.814-.541h129.956a.848.848 0 01.8.541.879.879 0 01-.184.948l-64.983 64.991a.868.868 0 01-1.23 0l-64.983-64.991a.826.826 0 01-.248-.616zm128.726.873h-125.762l62.881 62.883z"/><path class="b" d="M1073.37 2785.849v-129.98a.884.884 0 01.256-.616l194.682-194.724V2330.91a.874.874 0 011.492-.617l64.983 64.991a.875.875 0 010 1.233l-63.491 63.5h127.857a.873.873 0 010 1.746h-129.6l-194.434 194.457v127.515l193.454-193.486a.871.871 0 011.23 1.233l-194.94 194.975a.878.878 0 01-.948.19.852.852 0 01-.541-.798zm196.691-452.833v125.778l62.871-62.884z"/><path class="b" d="M1073.37 2655.857a.877.877 0 01.256-.617l129.961-129.98a.868.868 0 011.23 0 .858.858 0 010 1.233l-129.958 129.984a.869.869 0 01-1.233 0 .86.86 0 01-.256-.62zm259.92-259.957a.867.867 0 01.261-.616l64.973-64.991a.91.91 0 01.62-.256h129.966a.87.87 0 01.61 1.489l-129.96 129.981a.889.889 0 01-.62.257.906.906 0 01-.62-.257l-64.973-64.99a.853.853 0 01-.257-.617zm66.213-64.117l-64.1 64.117 63.743 63.757L1527 2331.773h-127.5zm-196.169 324.077a.857.857 0 01.252-.616.866.866 0 011.23 0l64.363 64.373 129.345-129.364a.874.874 0 011.24 1.233l-129.345 129.365 194.319 194.353a.881.881 0 01.261.62V3045.8a.863.863 0 01-.542.8.884.884 0 01-.949-.184l-194.939-194.968a.877.877 0 01-.262-.617v-129.62l-64.721-64.734a.843.843 0 01-.252-.617zm66.727 67.1v127.511l193.2 193.236v-127.515z"/><path class="b" d="M1333.29 2915.834a.875.875 0 01.261-.62l129.346-129.359-64.373-64.373a.911.911 0 01-.252-.617v-129.624l-64.721-64.734a.871.871 0 011.23-1.233l63.491 63.5v-127.883a.871.871 0 01.542-.806.883.883 0 01.949.19l129.957 129.98a.875.875 0 010 1.233l-64.983 64.99a.866.866 0 01-1.23 0l-63.491-63.5v127.513l64.111 64.118 64.363-64.373a.863.863 0 011.22-.01l131.68 128.273a.835.835 0 01.261.616.8.8 0 01-.252.617l-66.688 66.693a.854.854 0 01-1.23 0l-129.344-129.36-129.345 129.36a.854.854 0 01-1.23 0 .757.757 0 01-.272-.591zm66.727-452.837v127.514l64.111 64.118 63.743-63.757zm129.1 259.079l-63.757 63.766 128.726 128.743 65.458-65.46zm-331.934-66.203l7.023 7.022 7.023-7.022-7.023-7.023z"/><path class="b" d="M1392.489 2590.882l7.023 7.022 7.023-7.022-7.023-7.023zm-195.308-64.993l7.025 7.023 7.023-7.023-7.023-7.023zm64.994-194.972l7.023 7.023 7.023-7.023-7.023-7.022zm259.921.001l7.023 7.023 7.023-7.023-7.023-7.022z"/><path class="b" d="M813.438 2655.861a.86.86 0 01.256-.616l64.981-64.995a.872.872 0 111.232 1.233l-63.491 63.5h127.5l324.658-324.695a.871.871 0 011.23 1.233l-324.9 324.951a.884.884 0 01-.616.256H814.32a.865.865 0 01-.806-.541.809.809 0 01-.076-.326zm584.835 454.94v-129.985a.891.891 0 01.252-.61l323.432-323.473h-127.494l-64.731 64.735a.871.871 0 01-1.23-1.233l64.983-64.991a.869.869 0 01.61-.256h129.956a.867.867 0 01.8.541.88.88 0 01-.184.948l-324.652 324.707v129.617a.872.872 0 11-1.744 0zM683.476 2135.57a.872.872 0 011.489-.616l194.943 194.97a.871.871 0 010 1.233l-129.962 130.35a.872.872 0 01-1.233-1.233l129.354-129.72-194.326-194.358a.869.869 0 01-.265-.626z"/><path class="b" d="M878.417 2330.54a.873.873 0 011.49-.617l64.98 65.361 259.919 259.96a.857.857 0 010 1.233.868.868 0 01-1.23 0l-259.921-259.961-64.981-65.361a.861.861 0 01-.257-.615zm-194.941 65.36a.874.874 0 01.257-.616l130.151-130.16a.872.872 0 111.232 1.229l-130.141 130.164a.871.871 0 01-1.233 0 .835.835 0 01-.266-.617z"/><path class="b" d="M553.514 2135.57a.873.873 0 011.49-.616l324.286 324.7 129.354-129.361a.871.871 0 011.233 0l64.981 64.991a.871.871 0 010 1.233l-194.942 194.971a.872.872 0 01-1.232-1.233l194.325-194.355-63.748-63.756-129.345 129.363a.867.867 0 01-1.232 0l-324.9-325.32a.836.836 0 01-.27-.617zm129.962-259.96a.862.862 0 01.256-.617.87.87 0 011.233 0l194.943 194.97a.872.872 0 01-1.233 1.233l-194.943-194.97a.878.878 0 01-.256-.616z"/><path class="b" d="M553.332 2395.719a.877.877 0 01.256-.616l455.056-455.12a.872.872 0 011.233 1.233l-455.054 455.12a.872.872 0 01-1.489-.617z"/><path class="b" d="M750.041 2069.002a.853.853 0 01.266-.626.87.87 0 011.233.019l128.376 131.558a.872.872 0 11-1.252 1.215l-128.38-131.566a.844.844 0 01-.243-.6zm63.397-193.392a.859.859 0 01.257-.617.87.87 0 011.233 0l389.879 389.941a.893.893 0 010 1.233l-64.977 64.99a.869.869 0 01-1.233 0l-194.943-194.97a.872.872 0 011.233-1.233l194.326 194.353 63.744-63.757-389.263-389.324a.875.875 0 01-.256-.616zm324.913 194.97a.878.878 0 01.257-.617l129.963-129.98a.871.871 0 111.23 1.233l-129.962 129.98a.873.873 0 01-1.49-.616zm-714.798 585.277a.878.878 0 01.257-.616l129.961-129.977a.872.872 0 111.232 1.233l-129.96 129.98a.873.873 0 01-1.49-.617zm129.961 259.977v-129.979a.881.881 0 01.257-.616l323.423-323.47h-127.5l-64.724 64.734a.871.871 0 01-1.233 0l-64.981-64.991a.872.872 0 011.233-1.233l64.365 64.373 64.372-64.378a.885.885 0 01.616-.256H879.29a.865.865 0 01.806.541.879.879 0 01-.189.948l-324.647 324.7v129.624a.873.873 0 01-1.746 0z"/></g></g><path fill="none" stroke="#f72d54" d="M651.5 781.5v73"/></svg>
