<svg xmlns="http://www.w3.org/2000/svg" width="62" height="75"><defs><style>.d,.e{stroke:none}.e{fill:#1a1a1a}</style></defs><g fill="none"><path class="d" d="M0 75V34L31 0l31 34v41z"/><path class="e" d="M59 72V35.163L31 4.453 3 35.163V72h56m3 3H0V34L31 0l31 34v41z"/></g><g fill="#fff"><path class="d" d="M7.5 13.5h47v24.587h-6.718l-.443.468-16.34 17.263-16.338-17.263-.444-.468H7.5V13.5z"/><path class="e" d="M9 15v21.587h5.863l.888.937L31 53.636l15.25-16.112.887-.937H53V15H9m-3-3h50v27.587h-7.572L31 58 13.572 39.587H6V12z"/></g><path d="M18.5 24.5h24m-19 9h15" fill="none" stroke="#1a1a1a" stroke-width="3"/></svg>
