<svg xmlns="http://www.w3.org/2000/svg" width="78" height="80"><defs><style>.c,.g{fill:none}.c{stroke:#1a1a1a;stroke-width:3px}.e,.f{stroke:none}.f{fill:#1a1a1a}</style></defs><g fill="none"><path class="e" d="M19 0h39v25H19z"/><path class="f" d="M22 3v19h33V3H22m-3-3h39v25H19V0z"/></g><g fill="#fff"><path class="e" d="M26.822 1.506h23.704L38.674 13.265 26.822 1.506z"/><path class="f" d="M38.674 11.152l8.21-8.146h-16.42l8.21 8.146m0 4.226L23.18.006h30.988L38.674 15.378z"/></g><g class="c" transform="translate(33 59)"><circle class="e" cx="5.5" cy="5.5" r="5.5"/><circle class="g" cx="5.5" cy="5.5" r="4"/></g><g class="c"><path class="e" d="M35 69h7a6 6 0 016 6v5H29v-5a6 6 0 016-6z"/><path class="g" d="M35 70.5h7a4.5 4.5 0 014.5 4.5v2a1.5 1.5 0 01-1.5 1.5H32a1.5 1.5 0 01-1.5-1.5v-2a4.5 4.5 0 014.5-4.5z"/></g><g class="c" transform="translate(63 59)"><circle class="e" cx="5.5" cy="5.5" r="5.5"/><circle class="g" cx="5.5" cy="5.5" r="4"/></g><g class="c"><path class="e" d="M64 69h8a6 6 0 016 6v5H58v-5a6 6 0 016-6z"/><path class="g" d="M64 70.5h8a4.5 4.5 0 014.5 4.5v2a1.5 1.5 0 01-1.5 1.5H61a1.5 1.5 0 01-1.5-1.5v-2a4.5 4.5 0 014.5-4.5z"/></g><g class="c"><path class="e" d="M6 69h7a6 6 0 016 6v5H0v-5a6 6 0 016-6z"/><path class="g" d="M6 70.5h7a4.5 4.5 0 014.5 4.5v2a1.5 1.5 0 01-1.5 1.5H3A1.5 1.5 0 011.5 77v-2A4.5 4.5 0 016 70.5z"/></g><g class="c" transform="translate(4 59)"><circle class="e" cx="5.5" cy="5.5" r="5.5"/><circle class="g" cx="5.5" cy="5.5" r="4"/></g><path d="M38.482 29.442V45.26m0 6.026l-6.045-5.875m6.045 5.875l6.93-5.875m22.013-9.999v9.849m0 6.025l-6.045-5.875m6.045 5.875l5.932-5.875M9.538 36.07v9.19m0 6.026l-5.047-4.877m5.047 4.877l4.934-4.877M9.538 35.43h19.904m18.022 0h19.904" stroke-linecap="round" stroke="#1a1a1a" stroke-width="3" fill="none"/></svg>
