<svg xmlns="http://www.w3.org/2000/svg" xmlns:xlink="http://www.w3.org/1999/xlink" viewBox="0 0 142.55 160.85"><defs><linearGradient id="b" x1="-381.3" y1="-301.29" x2="-284.56" y2="-301.29" gradientTransform="rotate(30.46 -866.673 520.963)" gradientUnits="userSpaceOnUse"><stop offset="0" stop-color="#f82353"/><stop offset=".33" stop-color="#f94966"/><stop offset="1" stop-color="#faa293"/></linearGradient><linearGradient id="a" x1="-493.13" y1="1416.35" x2="-416.72" y2="1416.35" gradientTransform="rotate(-89.92 -862.444 463.37)" gradientUnits="userSpaceOnUse"><stop offset="0" stop-color="#f82353"/><stop offset=".23" stop-color="#f83c60"/><stop offset=".72" stop-color="#f97c80"/><stop offset="1" stop-color="#faa293"/></linearGradient><linearGradient id="c" x1="-600.33" y1="-317.2" x2="-512.91" y2="-317.2" gradientTransform="matrix(.82 .58 -.58 .82 339.46 694.59)" xlink:href="#a"/></defs><g data-name="レイヤー 2"><g data-name="レイヤー 1"><path d="M0 155.23V6.05C0 1.87 5.94-1.47 9.54.66l16.61 9.8a5.44 5.44 0 012.67 4.67L29 144.76a5.45 5.45 0 01-2.72 4.71L8.16 160A5.44 5.44 0 010 155.23z" fill="url(#b)"/><path d="M48 19.71l92 56.8a5.43 5.43 0 01-.2 9.36L124 94.71a5.45 5.45 0 01-5.4 0l-76.22-44.6a5.43 5.43 0 01-2.69-4.69V24.33A5.43 5.43 0 0148 19.71z" fill="url(#a)" opacity=".8"/><path d="M139.68 86L8.1 160.14a5.43 5.43 0 01-8.1-4.78L.18 135a5.44 5.44 0 012.72-4.66l112.75-65a5.44 5.44 0 015.51 0l18.65 11.17a5.44 5.44 0 01-.13 9.49z" fill="url(#c)" opacity=".8"/></g></g></svg>
