<svg xmlns="http://www.w3.org/2000/svg" xmlns:xlink="http://www.w3.org/1999/xlink" viewBox="0 0 1039.61 164.76"><defs><style>.cls-1{fill:#231815;}.cls-2{fill:url(#143);}.cls-3,.cls-4{opacity:0.8;}.cls-3{fill:url(#148);}.cls-4{fill:url(#148-2);}</style><linearGradient id="143" x1="463.03" y1="-286.94" x2="559.77" y2="-286.94" gradientTransform="translate(321.05 70.81) rotate(30.46)" gradientUnits="userSpaceOnUse"><stop offset="0" stop-color="#f82353"/><stop offset="0.33" stop-color="#f94966"/><stop offset="1" stop-color="#faa293"/></linearGradient><linearGradient id="148" x1="507.93" y1="1520.21" x2="584.34" y2="1520.21" gradientTransform="translate(-532.79 601.19) rotate(-89.92)" gradientUnits="userSpaceOnUse"><stop offset="0" stop-color="#f82353"/><stop offset="0.23" stop-color="#f83c60"/><stop offset="0.72" stop-color="#f97c80"/><stop offset="1" stop-color="#faa293"/></linearGradient><linearGradient id="148-2" x1="236.92" y1="-298.28" x2="324.34" y2="-298.28" gradientTransform="matrix(0.82, 0.58, -0.58, 0.82, 562.44, 197.63)" xlink:href="#148"/></defs><g id="2"><g id="1-2"><path class="cls-1" d="M102.61,138.42H10.21a10.37,10.37,0,0,1-4.05-.78,9.89,9.89,0,0,1-3.24-2.14,10,10,0,0,1-2.14-3.23A10.45,10.45,0,0,1,0,128.21V26.69H20.26v91.47h82.35Z"/><path class="cls-1" d="M137.91,138.42H117.65V26.69h20.26Z"/><path class="cls-1" d="M273.4,26.69,220.5,134.45a9.84,9.84,0,0,1-3.7,4,10.12,10.12,0,0,1-5.42,1.52,10,10,0,0,1-5.34-1.52,10.37,10.37,0,0,1-3.77-4L149.44,26.69h22.67l39.27,80.49,39.43-80.49Z"/><path class="cls-1" d="M385.83,138.42H312.75a32.3,32.3,0,0,1-9.19-1.48,26.88,26.88,0,0,1-9.24-4.87,27.36,27.36,0,0,1-7.09-8.8A28.39,28.39,0,0,1,284.39,110V36.9a10.18,10.18,0,0,1,.78-4,10.4,10.4,0,0,1,2.14-3.28,9.75,9.75,0,0,1,3.23-2.18,10.45,10.45,0,0,1,4.06-.78h91.23V47H304.65v63a8.24,8.24,0,0,0,2.1,6.08q2.1,2.1,6.16,2.1h72.92Zm-9.11-45.66h-64V72.35h64Z"/><path class="cls-1" d="M535.43,138.42H515V71.88L479.1,135.07a8.88,8.88,0,0,1-3.7,3.66,10.88,10.88,0,0,1-5.11,1.25,10.21,10.21,0,0,1-4.94-1.25,8.89,8.89,0,0,1-3.63-3.66L425.65,71.88v66.54H405.39V35.34a10,10,0,0,1,2.07-6.23,9.91,9.91,0,0,1,5.41-3.66,10.66,10.66,0,0,1,3.27-.28,11,11,0,0,1,3.16.7A9.63,9.63,0,0,1,424.17,30l46.12,80.18L516.42,30a9.87,9.87,0,0,1,5-4.2,10.47,10.47,0,0,1,6.58-.39,10.17,10.17,0,0,1,5.38,3.66,9.93,9.93,0,0,1,2.1,6.23Z"/><path class="cls-1" d="M643.65,110.53a31.28,31.28,0,0,1-1.48,9.08,27.17,27.17,0,0,1-4.79,9,26.73,26.73,0,0,1-8.65,7,27.59,27.59,0,0,1-13,2.8H579.22a31.23,31.23,0,0,1-9.08-1.48,26.51,26.51,0,0,1-16-13.44,27.59,27.59,0,0,1-2.81-13,31.93,31.93,0,0,1,1.48-9.12,27,27,0,0,1,4.8-9.07,26.69,26.69,0,0,1,8.64-7,27.63,27.63,0,0,1,13-2.8h36.54v19.32H579.22a8.09,8.09,0,0,0-6.39,2.53,9.06,9.06,0,0,0-2.26,6.27,7.7,7.7,0,0,0,2.61,6.2,9.24,9.24,0,0,0,6.19,2.22h36.39a8.2,8.2,0,0,0,6.39-2.49,9,9,0,0,0,2.26-6.24V82.09A8.29,8.29,0,0,0,622,75.78a8.6,8.6,0,0,0-6.19-2.34H571.27V54.2h44.49a31.28,31.28,0,0,1,9.08,1.48,26.58,26.58,0,0,1,16,13.44,27.59,27.59,0,0,1,2.8,13Z"/><path class="cls-1" d="M742.37,110a31.05,31.05,0,0,1-1.32,9.39,27.83,27.83,0,0,1-3.51,7.33,24,24,0,0,1-5.06,5.37,29.66,29.66,0,0,1-6,3.62,31.32,31.32,0,0,1-12.51,2.73H659.08V118.16h54.7q4.13,0,6.23-2.1a8.24,8.24,0,0,0,2.1-6.08q-.39-8.1-8.18-8.1h-31.4a25.16,25.16,0,0,1-11.37-2.34,23.22,23.22,0,0,1-7.6-5.84,22.34,22.34,0,0,1-4.21-7.56,25.28,25.28,0,0,1-1.28-7.56,24.47,24.47,0,0,1,2.41-11.41,22.81,22.81,0,0,1,6.08-7.52,23.9,23.9,0,0,1,8-4.17,27.83,27.83,0,0,1,8-1.28h49.79V74.45H682.69a7.06,7.06,0,0,0-2.46.35,2.94,2.94,0,0,0-1.32.94A2.56,2.56,0,0,0,678.4,77a11.35,11.35,0,0,0-.07,1.28,4.66,4.66,0,0,0,.46,2,2.39,2.39,0,0,0,1,1,3,3,0,0,0,1.32.35c.49,0,1,0,1.44,0h31.4a28.73,28.73,0,0,1,13.25,2.81,26.37,26.37,0,0,1,8.8,7,28,28,0,0,1,4.87,9.23A32.1,32.1,0,0,1,742.37,110Z"/><path class="cls-1" d="M848.18,164.76H827.92V82.56q0-4-2-6t-6.16-2.07H783.2a7.78,7.78,0,0,0-5.92,2.3,8.08,8.08,0,0,0-2.19,5.81V110a8.24,8.24,0,0,0,2.11,6.08q2.1,2.1,6.15,2.1h36.39v20.26H783.2a32.42,32.42,0,0,1-9.2-1.48,26.93,26.93,0,0,1-9.23-4.87,27.36,27.36,0,0,1-7.09-8.8A28.27,28.27,0,0,1,754.84,110V82.56a30.11,30.11,0,0,1,.66-6.08,31.33,31.33,0,0,1,2.06-6.35,29.89,29.89,0,0,1,3.63-6A23.79,23.79,0,0,1,766.56,59a27.25,27.25,0,0,1,7.29-3.51,30.65,30.65,0,0,1,9.35-1.32h36.54a30.72,30.72,0,0,1,6.12.66,31.48,31.48,0,0,1,6.39,2.06,29.83,29.83,0,0,1,6,3.63,23.83,23.83,0,0,1,5.07,5.37,27.54,27.54,0,0,1,3.5,7.29,30.33,30.33,0,0,1,1.33,9.35Z"/><path class="cls-2" d="M897.06,155.23V6.05c0-4.18,5.93-7.52,9.54-5.39l16.61,9.8a5.44,5.44,0,0,1,2.67,4.67l.21,129.63a5.42,5.42,0,0,1-2.71,4.71L905.22,160A5.44,5.44,0,0,1,897.06,155.23Z"/><path class="cls-3" d="M945,19.71l92,56.8a5.43,5.43,0,0,1-.2,9.36l-15.75,8.84a5.45,5.45,0,0,1-5.4,0L939.44,50.11a5.44,5.44,0,0,1-2.7-4.69V24.33A5.43,5.43,0,0,1,945,19.71Z"/><path class="cls-4" d="M1036.74,86,905.16,160.14a5.43,5.43,0,0,1-8.1-4.78l.18-20.36a5.44,5.44,0,0,1,2.72-4.66l112.75-65a5.44,5.44,0,0,1,5.51,0l18.64,11.17A5.44,5.44,0,0,1,1036.74,86Z"/></g></g></svg>
