<svg xmlns="http://www.w3.org/2000/svg" xmlns:xlink="http://www.w3.org/1999/xlink" viewBox="0 0 1039.61 164.76"><defs><linearGradient id="名称未設定グラデーション_143" x1="515.75" y1="-301.29" x2="612.49" y2="-301.29" gradientTransform="rotate(30.46 30.49 520.996)" gradientUnits="userSpaceOnUse"><stop offset="0" stop-color="#f82353"/><stop offset=".33" stop-color="#f94966"/><stop offset="1" stop-color="#faa293"/></linearGradient><linearGradient id="名称未設定グラデーション_148" x1="403.93" y1="1416.35" x2="480.34" y2="1416.35" gradientTransform="rotate(-89.92 34.622 463.365)" gradientUnits="userSpaceOnUse"><stop offset="0" stop-color="#f82353"/><stop offset=".23" stop-color="#f83c60"/><stop offset=".72" stop-color="#f97c80"/><stop offset="1" stop-color="#faa293"/></linearGradient><linearGradient id="名称未設定グラデーション_148-2" x1="296.73" y1="-317.2" x2="384.15" y2="-317.2" gradientTransform="rotate(35.3 -29.621 876.02)" xlink:href="#名称未設定グラデーション_148"/><style>.cls-1{fill:#fff}</style></defs><g id="レイヤー_2" data-name="レイヤー 2"><g id="レイヤー_1-2" data-name="レイヤー 1"><path class="cls-1" d="M102.61 138.42h-92.4a10.37 10.37 0 01-4.05-.78 9.89 9.89 0 01-3.24-2.14 10 10 0 01-2.14-3.23 10.45 10.45 0 01-.78-4.06V26.69h20.26v91.47h82.35zM137.91 138.42h-20.26V26.69h20.26zM273.4 26.69l-52.9 107.76a9.84 9.84 0 01-3.7 4 10.12 10.12 0 01-5.42 1.52 10 10 0 01-5.34-1.52 10.37 10.37 0 01-3.77-4L149.44 26.69h22.67l39.27 80.49 39.43-80.49zM385.83 138.42h-73.08a32.3 32.3 0 01-9.19-1.48 26.88 26.88 0 01-9.24-4.87 27.36 27.36 0 01-7.09-8.8 28.39 28.39 0 01-2.84-13.27V36.9a10.18 10.18 0 01.78-4 10.4 10.4 0 012.14-3.28 9.75 9.75 0 013.23-2.18 10.45 10.45 0 014.06-.78h91.23V47h-81.18v63a8.24 8.24 0 002.1 6.08q2.1 2.1 6.16 2.1h72.92zm-9.11-45.66h-64V72.35h64zM535.43 138.42H515V71.88l-35.9 63.19a8.88 8.88 0 01-3.7 3.66 10.88 10.88 0 01-5.11 1.25 10.21 10.21 0 01-4.94-1.25 8.89 8.89 0 01-3.63-3.66l-36.07-63.19v66.54h-20.26V35.34a10 10 0 012.07-6.23 9.91 9.91 0 015.41-3.66 10.66 10.66 0 013.27-.28 11 11 0 013.16.7 9.63 9.63 0 014.87 4.13l46.12 80.18L516.42 30a9.87 9.87 0 015-4.2 10.47 10.47 0 016.58-.39 10.17 10.17 0 015.38 3.66 9.93 9.93 0 012.1 6.23zM643.65 110.53a31.28 31.28 0 01-1.48 9.08 27.17 27.17 0 01-4.79 9 26.73 26.73 0 01-8.65 7 27.59 27.59 0 01-13 2.8h-36.51a31.23 31.23 0 01-9.08-1.48 26.51 26.51 0 01-16-13.44 27.59 27.59 0 01-2.81-13 31.93 31.93 0 011.48-9.12 27 27 0 014.8-9.07 26.69 26.69 0 018.64-7 27.63 27.63 0 0113-2.8h36.54v19.32h-36.57a8.09 8.09 0 00-6.39 2.53 9.06 9.06 0 00-2.26 6.27 7.7 7.7 0 002.61 6.2 9.24 9.24 0 006.19 2.22h36.39a8.2 8.2 0 006.39-2.49 9 9 0 002.26-6.24V82.09a8.29 8.29 0 00-2.41-6.31 8.6 8.6 0 00-6.19-2.34h-44.54V54.2h44.49a31.28 31.28 0 019.08 1.48 26.58 26.58 0 0116 13.44 27.59 27.59 0 012.8 13zM742.37 110a31.05 31.05 0 01-1.32 9.39 27.83 27.83 0 01-3.51 7.33 24 24 0 01-5.06 5.37 29.66 29.66 0 01-6 3.62 31.32 31.32 0 01-12.51 2.73h-54.89v-20.28h54.7q4.13 0 6.23-2.1a8.24 8.24 0 002.1-6.08q-.39-8.1-8.18-8.1h-31.4a25.16 25.16 0 01-11.37-2.34 23.22 23.22 0 01-7.6-5.84 22.34 22.34 0 01-4.21-7.56 25.28 25.28 0 01-1.28-7.56 24.47 24.47 0 012.41-11.41 22.81 22.81 0 016.08-7.52 23.9 23.9 0 018-4.17 27.83 27.83 0 018-1.28h49.79v20.25h-49.66a7.06 7.06 0 00-2.46.35 2.94 2.94 0 00-1.32.94 2.56 2.56 0 00-.51 1.26 11.35 11.35 0 00-.07 1.28 4.66 4.66 0 00.46 2 2.39 2.39 0 001 1 3 3 0 001.32.35H713.95a28.73 28.73 0 0113.25 2.81 26.37 26.37 0 018.8 7 28 28 0 014.87 9.23 32.1 32.1 0 011.5 9.33zM848.18 164.76h-20.26v-82.2q0-4-2-6t-6.16-2.07H783.2a7.78 7.78 0 00-5.92 2.3 8.08 8.08 0 00-2.19 5.81V110a8.24 8.24 0 002.11 6.08q2.1 2.1 6.15 2.1h36.39v20.26H783.2a32.42 32.42 0 01-9.2-1.48 26.93 26.93 0 01-9.23-4.87 27.36 27.36 0 01-7.09-8.8 28.27 28.27 0 01-2.84-13.29V82.56a30.11 30.11 0 01.66-6.08 31.33 31.33 0 012.06-6.35 29.89 29.89 0 013.63-6 23.79 23.79 0 015.37-5.13 27.25 27.25 0 017.29-3.51 30.65 30.65 0 019.35-1.32h36.54a30.72 30.72 0 016.12.66 31.48 31.48 0 016.39 2.06 29.83 29.83 0 016 3.63 23.83 23.83 0 015.07 5.37 27.54 27.54 0 013.5 7.29 30.33 30.33 0 011.33 9.35z"/><path d="M897.06 155.23V6.05c0-4.18 5.93-7.52 9.54-5.39l16.61 9.8a5.44 5.44 0 012.67 4.67l.21 129.63a5.42 5.42 0 01-2.71 4.71L905.22 160a5.44 5.44 0 01-8.16-4.77z" fill="url(#名称未設定グラデーション_143)"/><path d="M945 19.71l92 56.8a5.43 5.43 0 01-.2 9.36l-15.75 8.84a5.45 5.45 0 01-5.4 0l-76.21-44.6a5.44 5.44 0 01-2.7-4.69V24.33a5.43 5.43 0 018.26-4.62z" fill="url(#名称未設定グラデーション_148)" opacity=".8"/><path d="M1036.74 86l-131.58 74.14a5.43 5.43 0 01-8.1-4.78l.18-20.36a5.44 5.44 0 012.72-4.66l112.75-65a5.44 5.44 0 015.51 0l18.64 11.17a5.44 5.44 0 01-.12 9.49z" fill="url(#名称未設定グラデーション_148-2)" opacity=".8"/></g></g></svg>
