<svg id="レイヤー_1" data-name="レイヤー 1" xmlns="http://www.w3.org/2000/svg" width="142.58" height="160.84"><defs><style>.cls-1{isolation:isolate}</style></defs><g id="レイヤー_2" data-name="レイヤー 2"><g id="レイヤー_1-2" data-name="レイヤー 1-2"><path d="M0 155.23V6.05C0 1.87 5.94-1.47 9.54.66l16.61 9.8a5.44 5.44 0 012.67 4.67L29 144.76a5.45 5.45 0 01-2.72 4.71L8.16 160A5.44 5.44 0 010 155.23z"/><path class="cls-1" d="M48 19.71l92 56.8a5.43 5.43 0 01-.2 9.36L124 94.71a5.47 5.47 0 01-5.4 0l-76.22-44.6a5.42 5.42 0 01-2.69-4.69V24.33a5.43 5.43 0 015.41-5.45 5.49 5.49 0 012.9.83z"/><path class="cls-1" d="M139.68 86L8.1 160.14a5.43 5.43 0 01-8.1-4.78L.18 135a5.43 5.43 0 012.72-4.66l112.75-65a5.44 5.44 0 015.51 0l18.65 11.17a5.45 5.45 0 01-.13 9.49z"/></g></g></svg>
